<?xml version="1.0" standalone="no"?>
<!DOCTYPE svg PUBLIC "-//W3C//DTD SVG 20010904//EN"
 "http://www.w3.org/TR/2001/REC-SVG-20010904/DTD/svg10.dtd">
<svg version="1.0" xmlns="http://www.w3.org/2000/svg"
 width="300.000000pt" height="305.000000pt" viewBox="0 0 300.000000 305.000000"
 preserveAspectRatio="xMidYMid meet">
<metadata>
Created by potrace 1.10, written by Peter Selinger 2001-2011
</metadata>
<g transform="translate(0.000000,305.000000) scale(0.100000,-0.100000)"
fill="#000000" stroke="none">
<path d="M1728 1910 l-3 -1015 -28 -57 c-43 -88 -107 -152 -195 -195 -73 -36
-80 -38 -179 -38 -114 0 -126 -16 -16 -23 198 -13 361 99 428 295 l23 68 1
970 c1 533 5 973 9 977 5 5 98 7 207 6 198 -3 200 -3 211 -26 25 -50 35 -50
32 1 l-3 48 -242 2 -243 2 -2 -1015z"/>
<path d="M1874 2795 c-2 -5 -5 -462 -6 -1015 l-3 -1005 -32 -66 c-39 -80 -120
-159 -200 -197 -52 -24 -70 -27 -163 -27 -99 0 -109 2 -173 33 -124 61 -202
166 -228 304 -28 152 57 331 196 413 85 49 236 69 308 40 16 -7 17 9 17 244
l0 251 -103 0 c-255 0 -466 -85 -640 -257 -115 -114 -196 -254 -239 -412 -30
-111 -30 -325 0 -436 26 -96 87 -225 142 -304 42 -60 139 -152 226 -214 96
-69 271 -136 354 -137 40 0 10 19 -56 36 -116 30 -298 113 -369 168 -11 9 7 4
40 -10 273 -118 550 -112 793 17 179 95 311 235 397 422 71 153 69 131 72 765
3 393 1 572 -7 572 -5 0 -11 -1 -12 -2 -1 -2 -5 -259 -8 -573 l-6 -570 -25
-75 c-53 -157 -124 -273 -226 -371 -51 -49 -172 -139 -188 -139 -3 0 -29 -11
-58 -25 -98 -48 -183 -67 -324 -71 -99 -3 -151 0 -205 12 -83 19 -193 65 -254
106 -92 61 -183 196 -236 350 -31 90 -32 98 -32 258 0 180 8 221 73 364 72
159 212 307 372 393 79 43 209 83 280 86 l61 2 1 -140 0 -140 -94 -6 c-105 -8
-172 -29 -239 -78 -50 -36 -122 -119 -145 -167 -22 -47 -45 -143 -45 -189 0
-95 55 -226 122 -294 181 -180 232 -218 343 -252 231 -72 490 90 544 339 8 37
11 334 11 1006 0 861 2 954 16 960 31 12 261 7 271 -6 6 -7 18 -36 27 -64 43
-133 188 -306 381 -454 55 -42 159 -100 181 -100 7 0 25 -5 39 -12 l25 -11 0
-153 c0 -113 -3 -153 -13 -157 -19 -7 -205 21 -262 39 -92 30 -199 77 -264
116 -78 47 -123 53 -67 9 122 -97 356 -179 566 -196 l75 -7 -3 169 c-2 169 4
207 30 186 7 -6 30 -14 51 -18 28 -6 37 -4 37 7 0 10 -28 19 -92 31 -134 25
-238 79 -343 179 -64 60 -92 96 -123 156 -51 100 -73 167 -81 254 l-6 70 -239
1 c-151 1 -240 -2 -242 -8z m411 -23 c33 -8 45 -23 45 -53 0 -57 50 -186 95
-248 25 -34 41 -61 36 -61 -5 0 -37 30 -71 67 -63 69 -143 214 -154 282 -5 29
-4 32 12 26 9 -4 26 -10 37 -13z m-810 -1022 c3 -5 19 -10 36 -10 19 0 29 -5
29 -15 0 -8 4 -15 9 -15 11 0 13 -287 3 -345 l-7 -40 -80 -6 c-44 -3 -100 -12
-125 -19 -25 -7 -48 -13 -52 -12 -5 1 -8 -2 -8 -7 0 -5 -14 -14 -31 -21 -44
-19 -135 -113 -164 -170 -71 -141 -67 -291 12 -399 17 -24 17 -24 -3 -13 -11
6 -40 30 -63 54 -165 169 -137 459 59 603 86 63 254 96 334 65 l26 -10 0 185
c0 169 5 207 25 175z"/>
<path d="M2677 2274 c29 -14 79 -30 111 -36 46 -9 63 -17 75 -37 l16 -26 2 28
c1 15 2 33 3 40 1 6 -5 11 -12 9 -18 -3 -171 24 -205 37 -50 19 -44 10 10 -15z"/>
<path d="M1145 1875 c-330 -72 -589 -323 -677 -655 -31 -120 -31 -310 1 -429
38 -145 124 -305 202 -376 l33 -30 -36 50 c-64 91 -119 193 -148 274 -16 45
-27 81 -23 81 3 0 0 7 -7 15 -9 10 -15 64 -18 160 -4 125 -2 155 18 236 12 51
26 100 30 108 5 9 23 47 41 84 18 37 39 73 46 79 7 6 13 14 13 19 0 14 30 49
110 129 89 88 109 103 203 152 132 68 285 104 413 96 56 -3 60 -5 75 -37 13
-27 17 -30 22 -17 4 10 7 31 7 47 l0 29 -122 -1 c-68 0 -150 -6 -183 -14z"/>
<path d="M2385 1846 c49 -41 223 -123 316 -150 85 -24 213 -46 270 -46 35 0
42 30 7 31 -13 0 -36 2 -53 4 -16 2 -54 7 -83 10 -29 4 -85 15 -124 26 -70 20
-253 93 -274 110 -6 5 -28 16 -50 24 l-39 16 30 -25z"/>
<path d="M2335 1850 c-6 -9 -12 -245 -15 -575 l-6 -560 -26 -75 c-35 -101 -65
-166 -101 -220 -49 -72 -132 -163 -189 -207 -47 -36 -70 -51 -144 -91 -49 -27
-135 -61 -196 -77 -81 -21 -91 -41 -17 -31 71 10 200 58 283 107 98 58 258
220 313 319 59 106 100 235 112 359 12 113 13 1000 2 1041 -6 20 -9 22 -16 10z"/>
</g>
</svg>
